<svg xmlns:xlink="http://www.w3.org/1999/xlink" version="1.1" style="width: 100%; height: 100%; z-index: 5;" viewBox="0 0 1600 900"><g><g fill="rgb(135, 7, 233)" fill-rule="nonzero" transform="translate(200 351.463029922092) scale(2.737138057719666)"><svg xmlns="http://www.w3.org/2000/svg" fill="rgb(135, 7, 233)" xmlns:xlink="http://www.w3.org/1999/xlink" version="1.1" style="width: 100%; height: 100%; z-index: 5;" width="438.4141299031627" height="72" viewBox="18.00057009683728 72 438.4141299031627 72"><g><g fill="rgb(135, 7, 233)" fill-rule="nonzero" transform="translate(18.00057009683728 72) scale(0.14152222093987757)"><svg xmlns="http://www.w3.org/2000/svg" fill="rgb(135, 7, 233)" width="508.75" height="508.7540283203125" viewBox="1.625 1.6229991912841797 508.75 508.7540283203125"><path d="M482.25 210.752L346.5 346.502c-37.5 37.5-98.25 37.5-135.75 0l-45.25-45.25 45.25-45.25 45.25 45.25c12.5 12.469 32.781 12.5 45.25 0L437 165.502c12.469-12.484 12.469-32.781 0-45.266l-45.25-45.25c-12.469-12.469-32.781-12.469-45.25 0l-48.469 48.469c-22.469-13.219-48-18.891-73.281-17.188l76.5-76.531c37.5-37.484 98.281-37.484 135.75 0l45.25 45.25c37.5 37.485 37.5 98.282 0 135.766zM213.938 388.564L165.5 437.002c-12.5 12.5-32.781 12.469-45.25 0L75 391.752c-12.5-12.469-12.5-32.75 0-45.25l135.75-135.75c12.469-12.469 32.781-12.469 45.25 0l45.25 45.25 45.25-45.25-45.25-45.25c-37.5-37.484-98.25-37.484-135.75 0L29.75 301.252c-37.5 37.5-37.5 98.281 0 135.75L75 482.252c37.469 37.5 98.25 37.5 135.75 0l76.5-76.5c-25.281 1.687-50.75-4-73.312-17.188z"></path></svg></g><g fill="rgb(135, 7, 233)" transform="translate(105.608 127.44) scale(1)"><path fill-rule="nonzero" d="M54.288000 0L54.288000-25.056000C54.288000-31.536000 51.048000-35.496000 44.496000-35.496000C39.816000-35.496000 36.000000-32.976000 32.904000-29.880000C31.608000-33.264000 28.944000-35.496000 23.976000-35.496000C19.296000-35.496000 15.768000-32.976000 12.528000-29.880000L11.736000-34.776000L4.392000-34.776000L4.392000 0L13.032000 0L13.032000-23.544000C15.552000-26.136000 18.072000-27.864000 20.736000-27.864000C23.904000-27.864000 25.056000-25.776000 25.056000-22.752000L25.056000 0L33.696000 0L33.696000-23.544000C36.216000-26.136000 38.736000-27.864000 41.400000-27.864000C44.568000-27.864000 45.648000-25.776000 45.648000-22.752000L45.648000 0ZM91.146522-17.784000C91.146522-27.648000 86.466522-35.496000 76.026522-35.496000C66.954522-35.496000 60.186522-28.656000 60.186522-17.352000C60.186522-4.824000 67.458522 0.720000 77.178522 0.720000C82.794522 0.720000 87.330522-0.936000 91.074522-3.528000L90.066522-10.296000C86.250522-7.632000 82.578522-5.976000 78.114522-5.976000C72.786522-5.976000 69.186522-8.928000 68.754522-15.696000L91.074522-15.696000C91.074522-16.200000 91.146522-17.064000 91.146522-17.784000ZM82.722522-21.096000L68.898522-21.096000C69.546522-26.784000 72.354522-29.520000 75.810522-29.520000C79.986522-29.520000 82.146522-26.496000 82.722522-21.096000ZM118.141044-26.928000L116.773044-35.496000C111.373044-35.208000 107.917044-31.824000 105.613044-27.792000L104.533044-34.776000L97.189044-34.776000L97.189044 0L105.829044 0L105.829044-19.944000C108.277044-23.688000 112.741044-26.568000 118.141044-26.928000ZM130.159567-1.728000C131.887567-1.368000 132.967567-1.152000 135.343567-0.864000L140.023567-0.288000C144.343567 0.360000 145.855567 1.440000 145.855567 3.312000C145.855567 5.904000 142.327567 7.992000 136.135567 7.992000C129.583567 7.992000 126.487567 6.120000 126.487567 3.528000C126.487567 1.728000 127.639567 0.072000 130.159567-1.728000ZM141.535567-23.400000C141.535567-19.656000 139.231567-16.848000 135.415567-16.848000C131.671567-16.848000 129.367567-19.584000 129.367567-23.184000C129.367567-27.000000 131.599567-29.952000 135.415567-29.952000C139.087567-29.952000 141.535567-27.144000 141.535567-23.400000ZM145.207567-32.256000C142.687567-34.344000 139.303567-35.496000 135.343567-35.496000C127.567567-35.496000 121.375567-30.744000 121.375567-23.184000C121.375567-18.576000 123.823567-14.976000 127.927567-13.032000C125.047567-11.304000 123.535567-9.432000 123.535567-7.488000C123.535567-6.120000 124.183567-4.824000 125.551567-3.744000C121.231567-1.296000 118.999567 1.224000 118.999567 4.464000C118.999567 10.224000 126.127567 13.104000 135.559567 13.104000C145.639567 13.104000 153.847567 8.928000 153.847567 1.440000C153.847567-3.888000 149.383567-6.120000 142.255567-7.128000L137.791567-7.560000C132.391567-8.352000 131.311567-8.640000 131.311567-9.792000C131.311567-10.368000 131.887567-11.016000 132.751567-11.664000C133.615567-11.520000 134.551567-11.448000 135.559567-11.448000C143.047567-11.448000 149.455567-15.912000 149.455567-23.400000C149.455567-24.984000 149.167567-26.568000 148.519567-27.936000L154.855567-28.368000L153.703567-35.280000ZM188.258089-17.784000C188.258089-27.648000 183.578089-35.496000 173.138089-35.496000C164.066089-35.496000 157.298089-28.656000 157.298089-17.352000C157.298089-4.824000 164.570089 0.720000 174.290089 0.720000C179.906089 0.720000 184.442089-0.936000 188.186089-3.528000L187.178089-10.296000C183.362089-7.632000 179.690089-5.976000 175.226089-5.976000C169.898089-5.976000 166.298089-8.928000 165.866089-15.696000L188.186089-15.696000C188.186089-16.200000 188.258089-17.064000 188.258089-17.784000ZM179.834089-21.096000L166.010089-21.096000C166.658089-26.784000 169.466089-29.520000 172.922089-29.520000C177.098089-29.520000 179.258089-26.496000 179.834089-21.096000ZM224.468611 0L224.468611-51.984000L215.828611-50.616000L215.828611-33.840000C213.740611-34.560000 211.076611-35.136000 207.764611-35.136000C199.700611-35.136000 192.572611-29.376000 192.572611-16.416000C192.572611-4.680000 198.404611 0.720000 205.676611 0.720000C210.500611 0.720000 213.884611-1.872000 216.332611-4.824000L217.052611 0ZM215.828611-11.736000C213.524611-8.856000 211.076611-6.984000 207.908611-6.984000C204.092611-6.984000 201.212611-10.152000 201.212611-16.920000C201.212611-24.552000 204.524611-28.224000 209.060611-28.224000C212.012611-28.224000 213.668611-27.720000 215.828611-26.712000ZM260.607133 0L259.311133-8.424000L242.751133-8.424000L242.751133-49.680000L233.175133-49.680000L233.175133 0ZM275.577655-45.504000C275.577655-48.456000 273.273655-50.544000 270.465655-50.544000C267.585655-50.544000 265.281655-48.456000 265.281655-45.504000C265.281655-42.624000 267.585655-40.608000 270.465655-40.608000C273.273655-40.608000 275.577655-42.624000 275.577655-45.504000ZM274.713655 0L274.713655-34.776000L266.073655-34.776000L266.073655 0ZM312.580178 0L312.580178-25.056000C312.580178-31.536000 309.124178-35.496000 302.644178-35.496000C297.964178-35.496000 294.292178-32.976000 291.052178-29.880000L290.260178-34.776000L282.916178-34.776000L282.916178 0L291.556178 0L291.556178-23.472000C294.076178-26.136000 296.740178-27.864000 299.476178-27.864000C302.644178-27.864000 303.940178-25.776000 303.940178-22.752000L303.940178 0ZM350.806700-0.792000L337.198700-19.224000L350.014700-34.776000L340.294700-34.776000L328.918700-20.376000L328.918700-51.984000L320.278700-50.616000L320.278700 0L328.918700 0L328.918700-17.208000L341.662700 0.504000Z"></path></g></g></svg></g></g></svg>